HIERARCHY
ROOT Hips
{
	OFFSET 0.0000 0.0000 0.0000
	CHANNELS 6 Xposition Yposition Zposition Zrotation Xrotation Yrotation
	JOINT Ab
	{
		OFFSET -0.0000 8.0846 -0.0000
		CHANNELS 3 Zrotation Xrotation Yrotation
		JOINT Chest
		{
			OFFSET -0.0000 25.0068 -0.0000
			CHANNELS 3 Zrotation Xrotation Yrotation
			JOINT Neck
			{
				OFFSET -0.0000 25.0068 0.0000
				CHANNELS 3 Zrotation Xrotation Yrotation
				JOINT Head
				{
					OFFSET -0.0000 10.7556 0.0000
					CHANNELS 3 Zrotation Xrotation Yrotation
					End Site
					{
						OFFSET -0.0000 16.6222 0.0000
					}
				}
			}
			JOINT LeftCollar
			{
				OFFSET -0.0000 25.0068 0.0000
				CHANNELS 3 Zrotation Xrotation Yrotation
				JOINT LeftShoulder
				{
					OFFSET 19.5556 -0.0000 0.0000
					CHANNELS 3 Zrotation Xrotation Yrotation
					JOINT LeftElbow
					{
						OFFSET 27.1828 0.0000 0.0000
						CHANNELS 3 Zrotation Xrotation Yrotation
						JOINT LeftWrist
						{
							OFFSET 23.3157 0.0000 0.0000
							CHANNELS 3 Zrotation Xrotation Yrotation
							End Site
							{
								OFFSET 0.0000 -14.6667 0.0000
							}
						}
					}
				}
			}
			JOINT RightCollar
			{
				OFFSET -0.0000 25.0068 0.0000
				CHANNELS 3 Zrotation Xrotation Yrotation
				JOINT RightShoulder
				{
					OFFSET -19.5556 0.0000 0.0000
					CHANNELS 3 Zrotation Xrotation Yrotation
					JOINT RightElbow
					{
						OFFSET -27.1828 0.0000 0.0000
						CHANNELS 3 Zrotation Xrotation Yrotation
						JOINT RightWrist
						{
							OFFSET -23.3157 0.0000 0.0000
							CHANNELS 3 Zrotation Xrotation Yrotation
							End Site
							{
								OFFSET -0.0000 -14.6667 0.0000
							}
						}
					}
				}
			}
		}
	}
	JOINT LeftHip
	{
		OFFSET 11.7333 0.0000 0.0000
		CHANNELS 3 Zrotation Xrotation Yrotation
		JOINT LeftKnee
		{
			OFFSET -0.0000 -40.8688 0.0000
			CHANNELS 3 Zrotation Xrotation Yrotation
			JOINT LeftAnkle
			{
				OFFSET -0.0000 -44.4337 0.0000
				CHANNELS 3 Zrotation Xrotation Yrotation
				End Site
				{
					OFFSET -0.0000 -4.8889 16.6222
				}
			}
		}
	}
	JOINT RightHip
	{
		OFFSET -11.7333 0.0000 0.0000
		CHANNELS 3 Zrotation Xrotation Yrotation
		JOINT RightKnee
		{
			OFFSET -0.0000 -40.8688 0.0000
			CHANNELS 3 Zrotation Xrotation Yrotation
			JOINT RightAnkle
			{
				OFFSET -0.0000 -44.4337 0.0000
				CHANNELS 3 Zrotation Xrotation Yrotation
				End Site
				{
					OFFSET -0.0000 -4.8889 16.6222
				}
			}
		}
	}
}
MOTION
Frames: 16
Frame Time: 0.010000
-8.8579 87.2696 113.4485 3.1469 0.3949 173.9028 358.5392 2.1847 358.2779 1.7357 14.1983 358.0335 5.1069 349.9866 1.5107 356.9745 19.0689 1.5685 339.6336 359.1772 4.6744 303.2132 25.8146 350.6922 13.4012 355.4264 321.6239 83.0364 0.7604 336.8032 20.8806 358.9290 354.2552 63.5435 36.7771 5.6320 339.4740 354.5478 29.3796 278.4786 352.2433 22.0962 358.4958 4.2929 357.6802 358.0678 9.7190 357.1110 0.3355 349.3295 20.4047 2.5022 335.1727 4.0339 0.1160 17.5658 2.7028 357.9176 351.5633 342.9963 
-8.7141 87.2121 113.0720 3.0491 0.4330 174.0854 358.4946 2.1844 358.3049 1.7688 14.2889 358.0549 5.0605 349.9803 1.3841 357.1988 18.9756 1.4043 339.6363 359.1835 4.5602 303.0207 25.5908 350.9635 13.1388 355.4999 321.5719 83.1061 0.7133 336.4299 20.8902 358.9163 354.1533 63.5735 36.7462 5.5870 339.4868 354.5742 29.3746 278.4816 352.3427 22.0510 358.5092 4.5344 357.6406 358.0201 9.7763 357.0104 0.3031 349.1013 20.3468 2.4542 335.2363 4.0151 0.0778 17.6120 2.8741 357.8308 351.3146 342.8487 
-8.5814 87.1467 112.7045 2.9208 0.3842 174.3423 358.4985 2.1730 358.2572 1.7354 14.2582 358.0122 5.1112 349.9251 1.3100 357.2490 19.0236 1.3179 339.6235 359.1809 4.5406 302.8690 25.4759 351.2250 12.9347 355.5508 321.5679 83.0668 0.6951 336.0791 20.9295 358.9039 354.0800 63.6103 36.7325 5.4869 339.5104 354.5788 29.4036 278.4098 352.4881 22.0302 358.4992 4.6339 357.3357 357.9418 9.9005 357.0716 0.4760 348.8852 20.4002 2.3316 335.2096 3.9496 0.0664 17.7410 2.9556 357.8471 351.1448 342.7903 
-8.4303 87.0811 112.3202 2.8134 0.3239 174.5846 358.5174 2.1164 358.2112 1.7012 14.2600 357.9717 5.0970 349.8828 1.2787 357.3552 19.0555 1.2707 339.6143 359.1846 4.6015 302.7010 25.2556 351.4692 12.6053 355.6850 321.5440 83.3018 0.7157 335.6930 20.9416 358.8946 354.0956 63.6857 36.6720 5.3605 339.5711 354.5815 29.4104 278.4012 352.4505 21.9990 358.4978 4.7730 357.1845 357.9371 9.9683 356.9889 0.5744 348.6568 20.4416 2.2584 335.2173 3.9332 0.0631 17.8701 2.9437 357.8006 350.9992 342.7915 
-8.2496 87.0221 111.9182 2.7408 0.3255 174.7653 358.4843 2.0511 358.2414 1.7471 14.3751 357.9948 5.0843 349.8212 1.2436 357.4416 19.0574 1.2169 339.6182 359.1783 4.6188 302.5225 25.0351 351.7005 12.3369 355.7737 321.5015 83.4194 0.7444 335.3422 20.9174 358.9179 354.1196 63.7465 36.6295 5.3039 339.5755 354.5960 29.3719 278.5713 352.3479 22.0466 358.5493 5.0617 357.1727 357.9317 9.9127 356.8750 0.4285 348.3924 20.3471 2.2889 335.3281 4.0501 0.0310 18.0093 2.9828 357.7394 350.7537 342.7186 
-8.0857 86.9564 111.5063 2.6321 0.2868 175.0527 358.4511 1.9578 358.2409 1.7896 14.4511 357.9886 5.1602 349.7621 1.1429 357.4452 19.0733 1.1035 339.5998 359.1954 4.5196 302.3886 24.8557 351.9545 12.0985 355.8445 321.4952 83.3640 0.7746 334.9491 20.9045 358.8998 354.0195 63.8160 36.5728 5.2425 339.5025 354.5827 29.4381 278.6202 352.5534 22.1330 358.5468 5.2798 357.0557 357.9623 9.8908 356.8336 0.3046 348.0829 20.1307 2.2166 335.4205 3.9974 359.9871 18.2155 3.2836 357.5001 350.5720 342.4190 
-7.9035 86.8918 111.0955 2.5286 0.2246 175.3010 358.4314 1.8334 358.2321 1.8123 14.5501 357.9750 5.1615 349.6791 1.0781 357.5588 19.0765 1.0144 339.6045 359.1835 4.5459 302.2422 24.7664 352.1146 11.9507 355.8642 321.5158 83.3378 0.8103 334.6164 20.8855 358.8770 353.9957 63.9127 36.5881 5.1404 339.4419 354.5563 29.3930 278.7338 352.2156 22.1415 358.5667 5.4713 356.9839 357.9838 9.8826 356.7835 1.0837 347.9845 20.2244 2.1876 335.4826 3.9947 359.9444 18.5265 3.6280 357.8629 350.2795 342.2086 
-7.7082 86.8274 110.6661 2.4302 0.1981 175.5587 358.4246 1.7392 358.2130 1.8190 14.6425 357.9546 5.1165 349.5684 1.0203 357.7415 19.1195 0.9280 339.4932 359.1190 5.0712 302.6577 26.7229 351.7638 12.9550 355.3080 322.2218 82.8200 0.5953 335.6605 20.8913 358.9000 353.9802 63.9539 36.4639 5.0913 339.5562 354.6073 29.3601 278.7407 352.1480 22.2210 358.6618 5.7192 356.5568 357.8184 9.8522 356.8890 1.1207 347.8520 20.4465 2.1692 335.6664 4.0787 359.9092 18.7634 3.9434 357.8405 350.2227 342.0080 
-7.4837 86.7710 110.2044 2.3752 0.2364 175.7570 358.3884 1.7407 358.2616 1.8717 14.5841 357.9985 5.1770 349.7188 0.9460 357.7721 19.0106 0.8693 339.4557 359.1326 4.6039 302.1927 24.9858 352.6087 11.9034 355.9751 321.7235 83.3083 0.6874 334.4983 20.9529 358.8839 354.0122 64.0304 36.3806 4.8731 339.5811 354.5922 29.3657 278.7227 352.1844 22.2572 358.7753 6.0520 356.5372 357.7712 9.8769 356.8773 0.8717 347.6415 20.3007 2.2668 335.9614 4.2132 359.7499 18.9856 4.7437 357.8671 350.3202 341.5350 
-7.2626 86.7138 109.7977 2.2842 0.0831 176.0571 358.3981 1.5776 358.2089 1.8758 14.5905 357.9461 5.2292 349.6993 0.8792 357.8529 18.9718 0.7791 339.4604 359.1669 4.3711 302.0033 24.2009 353.0131 11.3674 356.2167 321.4762 83.3780 0.8425 333.9082 21.0065 358.8974 353.9876 64.0832 36.2521 4.7787 339.6498 354.6245 29.3573 278.7803 352.2296 22.3324 358.8664 6.0294 356.3537 357.7527 10.1017 356.6554 0.5734 347.3297 20.3310 2.2878 336.0449 4.1703 359.7020 19.1111 4.8048 357.7409 350.6663 341.3985 
-7.0522 86.6594 109.3922 2.1716 359.8791 176.4297 358.4072 1.3895 358.1292 1.8901 14.5681 357.8683 5.2405 349.6605 0.8540 357.9261 18.9667 0.7318 339.3842 359.1903 4.3628 302.0300 24.1152 353.1958 11.2451 356.1897 321.4320 83.2017 0.9390 333.7497 21.0430 358.8970 354.0085 64.1598 36.1284 4.6484 339.6861 354.6231 29.3859 278.7646 352.3881 22.3641 358.9165 5.8926 356.0784 357.7687 10.4271 356.4235 0.4737 347.0291 20.4336 2.2193 336.1106 4.0976 359.7611 19.0328 4.4547 357.9314 351.3851 341.4092 
-6.8242 86.6231 108.9471 2.1290 359.7965 176.7518 358.4674 1.2509 358.0801 1.9053 14.6522 357.8185 5.2461 349.6195 0.8160 357.9714 18.9518 0.6736 339.3604 359.2127 4.2718 301.8896 23.5947 353.4597 10.9010 356.3095 321.4156 83.2785 0.9373 333.1298 21.0843 358.8936 354.0525 64.2007 36.0961 4.5701 339.6607 354.6103 29.3605 278.8144 352.4060 22.3422 359.0154 5.9757 355.8846 357.8325 10.6179 356.3159 0.3312 346.7898 20.3885 2.2406 336.3408 4.0748 359.7805 18.8833 4.0535 358.2232 352.3421 341.5132 
-6.5843 86.6054 108.5018 2.1564 359.7592 177.0128 358.6167 1.1614 358.0305 1.8799 14.7609 357.7727 5.1181 349.6987 0.7772 358.2633 18.7384 0.6078 339.3272 359.2123 4.3132 301.8110 23.4207 353.5908 10.7894 356.2963 321.5266 83.2925 0.9191 332.6671 21.1311 358.9116 354.1809 64.2226 35.9940 4.5172 339.7492 354.6367 29.3483 278.6789 352.6415 22.3591 359.1838 6.0930 355.8074 357.9009 10.8409 356.1256 0.2483 346.6221 20.5135 2.3472 336.5821 4.0716 359.7609 18.8164 3.8015 358.3581 353.1865 341.7087 
-6.3437 86.6036 108.0489 2.2073 359.7530 177.2500 358.7259 1.1615 358.0361 1.9472 14.7783 357.7692 5.1194 349.7272 0.7410 358.3197 18.6476 0.5567 339.2095 359.1881 4.6134 301.9203 24.3688 353.4627 11.4288 355.9089 322.0525 82.9193 0.8224 333.1416 21.1429 358.9109 354.2389 64.2018 36.0650 4.4942 339.8764 354.6940 29.4096 278.2542 352.9352 22.4932 359.3574 6.2545 355.6247 357.9682 11.0528 356.0834 0.1223 346.4404 20.5370 2.4572 336.8129 4.0926 359.7691 18.8702 3.6248 358.5376 353.8725 342.0113 
-6.0974 86.6116 107.6122 2.2933 359.7215 177.4860 358.9357 1.1165 357.9795 1.9205 14.8652 357.7169 5.1196 349.6626 0.6961 358.4751 18.6284 0.4862 339.2555 359.1924 4.4763 301.6461 23.7141 353.7332 11.1748 356.1175 322.0707 83.1731 0.9637 332.7163 21.1909 358.9436 354.3488 64.1695 35.8355 4.5253 340.0216 354.7307 29.3110 278.3715 352.8332 22.6590 359.6713 6.3899 354.8738 357.7262 11.2418 356.4484 0.0844 346.2820 20.6674 2.5867 336.9582 4.2630 359.9125 19.0524 3.1955 358.5661 354.3947 342.2027 
-5.8464 86.6267 107.1791 2.3992 359.6771 177.7151 359.1036 1.1011 357.9481 1.9868 14.8863 357.6789 5.1468 349.6226 0.6730 358.5141 18.5972 0.4547 339.2872 359.2110 4.3107 301.3062 22.8102 354.0887 10.7841 356.3378 322.0602 83.3916 1.0237 332.0001 21.1710 358.9644 354.4356 64.1616 36.0198 4.5458 339.9361 354.7133 29.2333 278.1122 353.0270 22.4566 359.9148 6.4450 354.6678 357.7719 11.5508 356.4811 359.7998 346.0923 20.5962 2.7297 337.0164 4.2370 0.0334 19.3969 2.9989 358.0568 354.7636 342.2922 
